<svg xmlns="http://www.w3.org/2000/svg" height="598pt" version="1.1" viewBox="-30 1 598 598.70123" width="598pt">
<g id="surface1">
<path d="M 97.003906 599 L 442.824219 599 C 457.382812 599.023438 469.835938 588.554688 472.316406 574.210938 L 539.3125 191.402344 C 540.261719 185.96875 536.628906 180.796875 531.195312 179.847656 C 530.628906 179.75 530.054688 179.699219 529.480469 179.699219 L 414.113281 179.699219 C 424.242188 162.769531 420.183594 140.945312 404.648438 128.785156 L 402.472656 76.542969 C 400.785156 33.722656 365.535156 -0.09375 322.6875 0 L 217.140625 0 C 174.289062 -0.09375 139.039062 33.722656 137.355469 76.542969 L 135.136719 128.785156 C 119.605469 140.949219 115.546875 162.769531 125.675781 179.699219 L 10.347656 179.699219 C 4.832031 179.703125 0.363281 184.171875 0.367188 189.683594 C 0.367188 190.261719 0.414062 190.835938 0.515625 191.402344 L 67.511719 574.210938 C 69.992188 588.554688 82.445312 599.023438 97.003906 599 Z M 452.660156 570.765625 C 451.824219 575.546875 447.675781 579.035156 442.824219 579.035156 L 97.003906 579.035156 C 92.152344 579.035156 88.003906 575.546875 87.167969 570.765625 L 29.214844 239.601562 L 130.148438 239.601562 L 130.148438 281.371094 C 118.222656 285.585938 110.234375 296.835938 110.179688 309.484375 L 110.179688 328.363281 L 90.453125 417.132812 C 89.257812 422.515625 92.652344 427.847656 98.03125 429.046875 C 98.742188 429.203125 99.46875 429.285156 100.195312 429.285156 L 180.0625 429.285156 C 185.578125 429.28125 190.046875 424.8125 190.046875 419.296875 C 190.046875 418.570312 189.964844 417.84375 189.808594 417.132812 L 185.855469 399.332031 L 229.980469 399.332031 C 235.496094 399.332031 239.964844 394.863281 239.960938 389.347656 C 239.960938 388.621094 239.882812 387.894531 239.722656 387.183594 L 219.996094 298.410156 L 219.996094 279.535156 C 219.945312 266.886719 211.953125 255.636719 200.03125 251.421875 L 200.03125 239.601562 L 510.613281 239.601562 Z M 180.0625 199.667969 L 180.0625 219.632812 L 150.113281 219.632812 L 150.113281 199.667969 Z M 194.621094 140.027344 L 197.15625 79.039062 C 197.601562 68.335938 206.410156 59.890625 217.121094 59.898438 L 322.714844 59.898438 C 333.425781 59.890625 342.238281 68.335938 342.683594 79.039062 L 345.21875 140.027344 C 337.949219 152.265625 338 167.507812 345.347656 179.699219 L 194.480469 179.699219 C 201.832031 167.511719 201.886719 152.265625 194.621094 140.027344 Z M 180.0625 239.601562 L 180.0625 251.421875 C 168.140625 255.636719 160.148438 266.886719 160.097656 279.535156 L 160.097656 287.320312 C 157.195312 284.6875 153.804688 282.652344 150.113281 281.332031 L 150.113281 239.597656 L 180.0625 239.597656 Z M 202.027344 309.484375 L 217.550781 379.367188 L 181.410156 379.367188 L 171.984375 336.9375 L 178.066406 309.484375 L 180.0625 309.484375 L 180.0625 359.402344 L 200.03125 359.402344 L 200.03125 309.484375 Z M 128.148438 339.433594 L 130.148438 339.433594 L 130.148438 389.351562 L 150.113281 389.351562 L 150.113281 339.433594 L 152.109375 339.433594 L 167.632812 409.316406 L 112.644531 409.316406 Z M 140.128906 299.5 C 145.644531 299.5 150.113281 303.96875 150.113281 309.484375 L 150.113281 319.464844 L 130.144531 319.464844 L 130.144531 309.484375 C 130.148438 303.96875 134.617188 299.5 140.128906 299.5 Z M 190.046875 269.550781 C 195.5625 269.550781 200.03125 274.019531 200.03125 279.535156 L 200.03125 289.515625 L 180.0625 289.515625 L 180.0625 279.535156 C 180.0625 274.019531 184.53125 269.550781 190.046875 269.550781 Z M 514.105469 219.632812 L 200.03125 219.632812 L 200.03125 199.667969 L 517.597656 199.667969 Z M 359.761719 159.734375 C 359.761719 148.707031 368.703125 139.765625 379.730469 139.765625 C 390.757812 139.765625 399.695312 148.707031 399.695312 159.734375 C 399.695312 170.761719 390.757812 179.699219 379.730469 179.699219 C 368.703125 179.699219 359.761719 170.761719 359.761719 159.734375 Z M 157.300781 77.371094 C 158.5625 45.257812 185.003906 19.894531 217.140625 19.964844 L 322.683594 19.964844 C 354.824219 19.894531 381.261719 45.253906 382.523438 77.371094 L 384.3125 120.300781 C 382.792969 120.046875 381.265625 119.878906 379.730469 119.800781 C 374.492188 119.804688 369.308594 120.84375 364.476562 122.855469 L 362.617188 78.199219 C 361.769531 56.777344 344.121094 39.867188 322.683594 39.933594 L 217.113281 39.933594 C 195.671875 39.867188 178.027344 56.777344 177.179688 78.199219 L 175.320312 122.855469 C 170.496094 120.847656 165.324219 119.808594 160.097656 119.800781 C 158.5625 119.867188 157.03125 120.019531 155.515625 120.257812 Z M 140.128906 159.734375 C 140.128906 148.707031 149.070312 139.765625 160.097656 139.765625 C 171.125 139.765625 180.0625 148.707031 180.0625 159.734375 C 180.0625 170.761719 171.125 179.699219 160.097656 179.699219 C 149.070312 179.699219 140.128906 170.761719 140.128906 159.734375 Z M 130.148438 199.667969 L 130.148438 219.632812 L 25.722656 219.632812 L 22.226562 199.667969 Z M 130.148438 199.667969 " style=" stroke:none;fill-rule:nonzero;fill:rgb(0%,0%,0%);fill-opacity:1;" />
<path d="M 282.820312 516.207031 L 295.730469 529.117188 L 282.820312 542.023438 L 296.9375 556.140625 L 309.847656 543.234375 L 312.773438 546.15625 L 326.886719 532.042969 L 296.9375 502.09375 Z M 282.820312 516.207031 " style=" stroke:none;fill-rule:nonzero;fill:rgb(0%,0%,0%);fill-opacity:1;" />
<path d="M 332.738281 516.207031 L 345.648438 529.117188 L 332.738281 542.023438 L 346.855469 556.140625 L 359.761719 543.234375 L 362.6875 546.15625 L 376.804688 532.042969 L 346.855469 502.09375 Z M 332.738281 516.207031 " style=" stroke:none;fill-rule:nonzero;fill:rgb(0%,0%,0%);fill-opacity:1;" />
<path d="M 382.65625 516.207031 L 395.5625 529.117188 L 382.65625 542.023438 L 396.773438 556.140625 L 409.679688 543.234375 L 412.605469 546.15625 L 426.722656 532.042969 L 396.773438 502.09375 Z M 382.65625 516.207031 " style=" stroke:none;fill-rule:nonzero;fill:rgb(0%,0%,0%);fill-opacity:1;" />
<path d="M 342.722656 486.257812 L 356.839844 472.140625 L 326.886719 442.191406 L 312.773438 456.308594 L 325.679688 469.214844 L 312.773438 482.125 L 326.886719 496.242188 L 339.796875 483.332031 Z M 342.722656 486.257812 " style=" stroke:none;fill-rule:nonzero;fill:rgb(0%,0%,0%);fill-opacity:1;" />
<path d="M 392.636719 486.257812 L 406.753906 472.140625 L 376.804688 442.191406 L 362.6875 456.308594 L 375.597656 469.214844 L 362.6875 482.125 L 376.804688 496.242188 L 389.714844 483.332031 Z M 392.636719 486.257812 " style=" stroke:none;fill-rule:nonzero;fill:rgb(0%,0%,0%);fill-opacity:1;" />
<path d="M 412.605469 456.308594 L 425.515625 469.214844 L 412.605469 482.125 L 426.722656 496.242188 L 439.628906 483.332031 L 442.554688 486.257812 L 456.671875 472.140625 L 426.722656 442.191406 Z M 412.605469 456.308594 " style=" stroke:none;fill-rule:nonzero;fill:rgb(0%,0%,0%);fill-opacity:1;" />
<path d="M 406.753906 436.339844 L 419.664062 423.433594 L 422.589844 426.359375 L 436.703125 412.242188 L 406.753906 382.292969 L 392.636719 396.410156 L 405.546875 409.316406 L 392.636719 422.226562 Z M 406.753906 436.339844 " style=" stroke:none;fill-rule:nonzero;fill:rgb(0%,0%,0%);fill-opacity:1;" />
<path d="M 356.839844 436.339844 L 369.746094 423.433594 L 372.671875 426.359375 L 386.789062 412.242188 L 356.839844 382.292969 L 342.722656 396.410156 L 355.628906 409.316406 L 342.722656 422.226562 Z M 356.839844 436.339844 " style=" stroke:none;fill-rule:nonzero;fill:rgb(0%,0%,0%);fill-opacity:1;" />
<path d="M 306.921875 436.339844 L 319.832031 423.433594 L 322.753906 426.359375 L 336.871094 412.242188 L 306.921875 382.292969 L 292.804688 396.410156 L 305.714844 409.316406 L 292.804688 422.226562 Z M 306.921875 436.339844 " style=" stroke:none;fill-rule:nonzero;fill:rgb(0%,0%,0%);fill-opacity:1;" />
<path d="M 436.703125 376.441406 L 449.613281 363.53125 L 452.539062 366.457031 L 466.65625 352.339844 L 436.703125 322.390625 L 422.589844 336.507812 L 435.496094 349.417969 L 422.589844 362.324219 Z M 436.703125 376.441406 " style=" stroke:none;fill-rule:nonzero;fill:rgb(0%,0%,0%);fill-opacity:1;" />
<path d="M 386.789062 376.441406 L 399.695312 363.53125 L 402.621094 366.457031 L 416.738281 352.339844 L 386.789062 322.390625 L 372.671875 336.507812 L 385.582031 349.417969 L 372.671875 362.324219 Z M 386.789062 376.441406 " style=" stroke:none;fill-rule:nonzero;fill:rgb(0%,0%,0%);fill-opacity:1;" />
<path d="M 336.871094 376.441406 L 349.78125 363.53125 L 352.703125 366.457031 L 366.820312 352.339844 L 336.871094 322.390625 L 322.753906 336.507812 L 335.664062 349.417969 L 322.753906 362.324219 Z M 336.871094 376.441406 " style=" stroke:none;fill-rule:nonzero;fill:rgb(0%,0%,0%);fill-opacity:1;" />
</g>
</svg>