<svg id="Layer_1" enable-background="new 0 0 256 256" height="512" viewBox="0 0 256 256" width="512" xmlns="http://www.w3.org/2000/svg"><g><g><path d="m205.472 95.261h-.089v-19.452h-76.729v19.452h-.089c-16.2 0-29.333 13.133-29.333 29.333v115.672c0 6.48 5.253 11.733 11.733 11.733h112.108c6.48 0 11.733-5.253 11.733-11.733v-115.672c0-16.2-13.133-29.333-29.334-29.333z" fill="#f4efed"/></g><g><path d="m205.472 95.261h-.089v-19.452h-10v19.452h.089c16.2 0 29.333 13.133 29.333 29.333v115.672c0 6.48-5.253 11.733-11.733 11.733h10c6.48 0 11.733-5.253 11.733-11.733v-115.672c.001-16.2-13.132-29.333-29.333-29.333z" fill="#d6d1cf"/></g><g><path d="m128.565 95.261h.089v-19.452h10v19.452h-.09c-16.2 0-29.333 13.133-29.333 29.333v115.672c0 6.48 5.253 11.733 11.733 11.733h-10c-6.48 0-11.733-5.253-11.733-11.733v-115.672c0-16.2 13.133-29.333 29.334-29.333z" fill="#fff"/></g><g><path d="m110.965 252h112.108c6.48 0 11.733-5.253 11.733-11.733v-70.819l-29.658-30.562c-20.87-21.506-55.387-21.506-76.257 0l-29.659 30.562v70.818c-.001 6.481 5.252 11.734 11.733 11.734z" fill="#af5f40"/></g><g><path d="m234.806 240.267v-70.819l-10-10.305v81.123c0 6.48-5.253 11.733-11.733 11.733h10c6.48.001 11.733-5.252 11.733-11.732z" fill="#914122"/></g><g><path d="m99.231 240.267v-70.819l10-10.305v81.123c0 6.48 5.253 11.733 11.733 11.733h-10c-6.48.001-11.733-5.252-11.733-11.732z" fill="#cd7d5e"/></g><g><path d="m192.368 4h-50.7c-6.959 0-12.389 6.023-11.671 12.945l3.35 32.265h67.342l3.35-32.265c.719-6.922-4.711-12.945-11.671-12.945z" fill="#fcc24c"/></g><g><path d="m210.795 75.809h-87.553c-7.345 0-13.299-5.954-13.299-13.299 0-7.345 5.954-13.299 13.299-13.299h87.553c7.345 0 13.299 5.954 13.299 13.299 0 7.345-5.954 13.299-13.299 13.299z" fill="#f4efed"/></g><g><path d="m210.795 49.21h-10c7.345 0 13.299 5.954 13.299 13.299 0 7.345-5.954 13.299-13.299 13.299h10c7.345 0 13.299-5.954 13.299-13.299 0-7.344-5.954-13.299-13.299-13.299z" fill="#d6d1cf"/></g><g><path d="m123.242 49.21h10c-7.345 0-13.299 5.954-13.299 13.299 0 7.345 5.954 13.299 13.299 13.299h-10c-7.345 0-13.299-5.954-13.299-13.299 0-7.344 5.954-13.299 13.299-13.299z" fill="#fff"/></g><g><path d="m192.368 4h-10c6.959 0 12.389 6.023 11.671 12.945l-3.349 32.265h10l3.349-32.265c.719-6.922-4.711-12.945-11.671-12.945z" fill="#dea42e"/></g><g><path d="m141.669 4h10c-6.959 0-12.389 6.023-11.671 12.945l3.35 32.265h-10l-3.35-32.265c-.719-6.922 4.711-12.945 11.671-12.945z" fill="#fce06a"/></g><g><path d="m210.795 77.809h-87.553c-8.436 0-15.299-6.863-15.299-15.299 0-8.437 6.863-15.3 15.299-15.3h87.553c8.436 0 15.299 6.863 15.299 15.3 0 8.436-6.863 15.299-15.299 15.299zm-87.553-26.599c-6.23 0-11.299 5.069-11.299 11.3 0 6.23 5.069 11.299 11.299 11.299h87.553c6.23 0 11.299-5.069 11.299-11.299 0-6.231-5.069-11.3-11.299-11.3z" fill="#690589"/></g><g><path d="m200.689 51.21h-67.342c-1.025 0-1.883-.774-1.989-1.793l-3.35-32.265c-.401-3.862.86-7.73 3.46-10.614s6.317-4.538 10.2-4.538h50.7c3.883 0 7.6 1.654 10.2 4.538 2.6 2.883 3.86 6.752 3.46 10.614l-3.35 32.265c-.105 1.019-.964 1.793-1.989 1.793zm-65.538-4h63.735l3.164-30.472c.284-2.737-.609-5.479-2.452-7.523-1.843-2.043-4.477-3.215-7.229-3.215h-50.7c-2.752 0-5.387 1.172-7.229 3.216-1.843 2.043-2.736 4.786-2.452 7.523z" fill="#690589"/></g><g><path d="m223.072 254h-112.107c-7.573 0-13.733-6.161-13.733-13.733v-70.818c0-.52.203-1.02.565-1.393l29.659-30.562c10.473-10.792 24.525-16.736 39.564-16.736h.001c15.039 0 29.09 5.944 39.563 16.736l29.658 30.562c.362.374.565.873.565 1.393v70.819c-.001 7.571-6.162 13.732-13.735 13.732zm-121.841-83.741v70.007c0 5.367 4.366 9.733 9.733 9.733h112.107c5.367 0 9.733-4.366 9.733-9.733v-70.008l-29.093-29.98c-9.714-10.01-22.745-15.522-36.693-15.522-13.949 0-26.98 5.513-36.694 15.522z" fill="#690589"/></g><g><path d="m223.072 254h-112.108c-7.572 0-13.733-6.161-13.733-13.733v-115.673c0-16.636 13.031-30.285 29.423-31.275v-17.51c0-1.104.896-2 2-2h76.729c1.105 0 2 .896 2 2v17.51c16.392.99 29.423 14.64 29.423 31.275v115.672c0 7.573-6.161 13.734-13.734 13.734zm-92.418-176.191v17.452c0 1.104-.896 2-2 2-15.161 0-27.423 12.262-27.423 27.333v115.672c0 5.367 4.366 9.733 9.733 9.733h112.108c5.367 0 9.733-4.366 9.733-9.733v-115.672c0-15.071-12.262-27.333-27.333-27.333h-.089c-1.104 0-2-.896-2-2v-17.452z" fill="#690589"/></g><g><path d="m141.932 37.66c-1.02 0-1.891-.776-1.989-1.812l-1.133-12c-.104-1.1.704-2.075 1.803-2.179 1.095-.105 2.075.704 2.179 1.803l1.133 12c.104 1.1-.704 2.075-1.803 2.179-.064.006-.127.009-.19.009z" fill="#690589"/></g><g><path d="m152.693 254c-.512 0-1.023-.195-1.414-.586l-86.614-86.614c-.781-.781-.781-2.047 0-2.828.78-.781 2.047-.781 2.828 0l86.614 86.614c.781.781.781 2.047 0 2.828-.39.391-.902.586-1.414.586z" fill="#690589"/></g><g><g><g><path d="m66.159 165.466c-.103.103-.231.178-.377.217-12.2 3.256-25.314-.257-34.225-9.168s-12.424-22.025-9.168-34.225c.077-.29.304-.516.594-.594 12.2-3.256 25.314.257 34.225 9.168s12.424 22.025 9.169 34.225c-.04.145-.116.274-.218.377z" fill="#7bac51"/></g></g><g><g><path d="m93.338 194.641c0 .145-.038.29-.113.42-6.325 10.929-18.082 17.718-30.684 17.718s-24.36-6.789-30.684-17.718c-.15-.26-.15-.58 0-.839 6.325-10.929 18.082-17.718 30.684-17.718s24.36 6.789 30.684 17.718c.075.129.113.274.113.419z" fill="#7bac51"/></g></g><g><path d="m42.26 156.514c-8.911-8.911-12.424-22.025-9.168-34.225.078-.29.304-.516.594-.593 1.252-.334 2.515-.579 3.781-.772-4.763-.726-9.693-.506-14.484.772-.29.077-.516.304-.594.593-3.256 12.2.257 25.314 9.169 34.225 7.997 7.997 19.377 11.628 30.445 9.941-7.367-1.123-14.331-4.529-19.743-9.941z" fill="#99ca6f"/></g><g><g><path d="m56.667 168.877c-9.82 0-19.432-3.855-26.524-10.949-9.415-9.414-13.126-23.268-9.687-36.155.26-.977 1.029-1.747 2.007-2.01 12.889-3.441 26.743.272 36.157 9.686s13.126 23.268 9.687 36.155c-.128.481-.382.923-.735 1.275-.353.353-.794.607-1.276.735-3.177.849-6.415 1.263-9.629 1.263zm-32.514-45.417c-2.777 11.326.569 23.392 8.818 31.64 8.248 8.248 20.313 11.594 31.64 8.818 2.777-11.326-.569-23.392-8.818-31.64-8.248-8.248-20.312-11.595-31.64-8.818z" fill="#690589"/></g></g><g><path d="m42.561 195.061c-.15-.26-.15-.58 0-.84 5.418-9.362 14.826-15.67 25.332-17.291-1.759-.271-3.545-.426-5.352-.426-12.602 0-24.36 6.789-30.684 17.718-.15.26-.15.58 0 .84 6.324 10.929 18.082 17.718 30.684 17.718 1.807 0 3.593-.155 5.352-.426-10.507-1.623-19.915-7.932-25.332-17.293z" fill="#99ca6f"/></g><g><g><path d="m62.542 214.778c-13.314 0-25.734-7.171-32.415-18.716-.508-.877-.508-1.966 0-2.843 6.681-11.544 19.101-18.716 32.415-18.716s25.734 7.171 32.415 18.716c.25.432.382.923.382 1.422s-.132.99-.382 1.421c-6.682 11.545-19.102 18.716-32.415 18.716zm-28.609-20.137c6.044 9.971 16.943 16.138 28.608 16.138 11.666 0 22.564-6.166 28.608-16.137-6.044-9.971-16.943-16.138-28.608-16.138-11.666-.001-22.564 6.165-28.608 16.137zm57.561.582h.01z" fill="#690589"/></g></g><g><g><path d="m94.914 192.532c-10.929-6.325-17.718-18.082-17.718-30.684s6.789-24.359 17.718-30.684c.26-.15.58-.15.84 0 10.929 6.324 17.718 18.082 17.718 30.684s-6.789 24.359-17.718 30.684c-.13.075-.275.113-.42.113s-.29-.038-.42-.113z" fill="#7bac51"/></g></g><g><g><path d="m95.334 194.645c-.499 0-.99-.132-1.422-.382-11.544-6.681-18.716-19.101-18.716-32.415 0-13.313 7.171-25.734 18.716-32.415.879-.507 1.966-.506 2.841-.002 11.546 6.682 18.718 19.103 18.718 32.417s-7.171 25.735-18.715 32.415c-.432.25-.924.382-1.422.382zm.582-3.844h.01zm-.001-.001c0 .001 0 .001.001.001-.001 0-.001 0-.001-.001zm-.581-57.56c-9.971 6.043-16.138 16.942-16.138 28.608s6.166 22.564 16.138 28.608c9.971-6.044 16.137-16.943 16.137-28.608s-6.165-22.564-16.137-28.608z" fill="#690589"/></g></g><g><g><path d="m129.819 231.122c0 .145-.038.29-.113.42-6.324 10.929-18.082 17.718-30.684 17.718s-24.359-6.789-30.684-17.718c-.15-.26-.15-.58 0-.839 6.325-10.929 18.082-17.718 30.684-17.718s24.359 6.789 30.684 17.718c.075.129.113.274.113.419z" fill="#7bac51"/></g></g><g><g><path d="m131.395 229.013c-10.929-6.324-17.718-18.082-17.718-30.684s6.789-24.36 17.718-30.684c.26-.15.58-.15.839 0 10.929 6.324 17.718 18.082 17.718 30.684s-6.789 24.359-17.718 30.684c-.13.075-.275.113-.42.113s-.289-.038-.419-.113z" fill="#7bac51"/></g></g><g><g><path d="m131.815 231.126c-.498 0-.99-.132-1.421-.382-11.545-6.68-18.717-19.101-18.717-32.414 0-13.314 7.172-25.735 18.717-32.415.875-.508 1.965-.508 2.843 0 11.544 6.681 18.716 19.101 18.716 32.415 0 13.313-7.171 25.734-18.716 32.414-.432.25-.923.382-1.422.382zm.585-3.842h.01zm-.585-57.563c-9.973 6.045-16.138 16.943-16.138 28.608 0 11.666 6.166 22.564 16.138 28.608 9.971-6.044 16.138-16.943 16.138-28.608s-6.166-22.564-16.138-28.608z" fill="#690589"/></g></g><g><path d="m79.042 231.542c-.15-.26-.15-.58 0-.84 5.418-9.362 14.826-15.67 25.332-17.291-1.759-.271-3.545-.426-5.352-.426-12.602 0-24.359 6.789-30.684 17.718-.15.26-.15.58 0 .84 6.325 10.929 18.082 17.718 30.684 17.718 1.807 0 3.593-.155 5.352-.427-10.507-1.622-19.915-7.931-25.332-17.292z" fill="#99ca6f"/></g><g><g><path d="m99.022 251.259c-13.313 0-25.734-7.171-32.415-18.716-.506-.878-.506-1.965-.001-2.841 6.683-11.547 19.103-18.718 32.416-18.718s25.734 7.171 32.415 18.716c.251.436.381.925.381 1.422 0 .496-.131.986-.378 1.417-6.684 11.549-19.104 18.72-32.418 18.72zm-28.608-20.137c6.043 9.971 16.942 16.137 28.608 16.137 11.665 0 22.564-6.165 28.608-16.138-6.041-9.97-16.941-16.137-28.608-16.137-11.665 0-22.563 6.166-28.608 16.138zm57.559.577h.01z" fill="#690589"/></g></g></g></g></svg>